<svg xmlns="http://www.w3.org/2000/svg" viewBox="0 0 49.63 49.79"><title>Asset 1</title><g id="Layer_2" data-name="Layer 2"><g id="Layer_1-2" data-name="Layer 1"><path d="M44,5.66c-4.08-4.07-8.92-6-14-5.61-4.77.38-9.52,2.81-13.74,7C9.81,13.5,5.84,23.24,10,31.55L6.69,34.91a5.91,5.91,0,0,0-5,10,5.88,5.88,0,0,0,1.87,1.26,5.91,5.91,0,0,0,11.28-3.24l3.36-3.36a16.35,16.35,0,0,0,7.29,1.69,19.49,19.49,0,0,0,2.76-.2A26.25,26.25,0,0,0,42.6,33.33C51.43,24.54,52,13.65,44,5.66ZM15.54,38l-3.43,3.43A1.53,1.53,0,0,0,11.75,43a2.91,2.91,0,0,1-1.83,3.7,3,3,0,0,1-3-.7,3,3,0,0,1-.76-1.31A1.48,1.48,0,0,0,5.1,43.62a3,3,0,0,1-1.31-.75,2.92,2.92,0,0,1,2.06-5,2.82,2.82,0,0,1,.87.13,1.48,1.48,0,0,0,1.51-.37l3.45-3.44c.25.33.52.66.8,1l0,.07.91,1a7.86,7.86,0,0,0,1.15,1c.18.16.37.3.56.45Zm24.92-6.76a23.34,23.34,0,0,1-12.67,6.88,13.85,13.85,0,0,1-9.43-1.82L18,36.12c-.38-.24-.76-.51-1.12-.79l-.25-.21c-.38-.31-.76-.65-1.13-1h0a15.92,15.92,0,0,1-2.36-3h0c-4.21-7.19-.62-16,5.2-21.85,3.71-3.71,7.81-5.84,11.86-6.16.35,0,.7,0,1,0A14.88,14.88,0,0,1,41.8,7.85C48.68,14.59,48.14,23.59,40.46,31.27Z"/><path d="M36.24,9.66,36,9.74a1.65,1.65,0,0,0-.26.14,1.68,1.68,0,0,0-.42.42c-.05.08-.09.17-.14.26s0,.18-.08.28a1.41,1.41,0,0,0,0,.29,1.54,1.54,0,0,0,.44,1.06,2.11,2.11,0,0,0,.23.19,1.26,1.26,0,0,0,.26.13,1.52,1.52,0,0,0,.28.09,1.42,1.42,0,0,0,.58,0,1.15,1.15,0,0,0,.28-.09,1.05,1.05,0,0,0,.26-.13,1.45,1.45,0,0,0,.23-.19,1.5,1.5,0,0,0-1.35-2.53Z"/><path d="M40.23,18.62a1.51,1.51,0,0,0-.28,3h.15a1.5,1.5,0,1,0,.13-3Z"/><path d="M36.94,28.23A1.23,1.23,0,0,0,36.8,28a1.4,1.4,0,0,0-.42-.42,2,2,0,0,0-.25-.14l-.28-.08a1.47,1.47,0,0,0-.59,0l-.28.08-.26.14-.23.19a1.54,1.54,0,0,0-.44,1.06,1.5,1.5,0,0,0,1.48,1.5,1.53,1.53,0,0,0,.6-.12,1,1,0,0,0,.25-.13,1.45,1.45,0,0,0,.23-.19,1.5,1.5,0,0,0,.44-1.06.71.71,0,0,0,0-.29A1.45,1.45,0,0,0,36.94,28.23Z"/></g></g></svg>