<svg xmlns="http://www.w3.org/2000/svg" viewBox="0 0 67.99 61.27"><title>soup</title><g id="Layer_2" data-name="Layer 2"><g id="Layer_1-2" data-name="Layer 1"><path d="M24,.5a1.69,1.69,0,0,0-2.4,0,8.16,8.16,0,0,0,0,11.53h0a4.77,4.77,0,0,1,0,6.73,1.7,1.7,0,0,0,0,2.4,1.7,1.7,0,0,0,2.4,0,8.17,8.17,0,0,0,0-11.54h0A4.76,4.76,0,0,1,24,2.9,1.68,1.68,0,0,0,24,.5Z"/><path d="M35.19.5a1.7,1.7,0,0,0-2.4,0,8.15,8.15,0,0,0,0,11.5l0,0h0a4.77,4.77,0,0,1,0,6.73,1.7,1.7,0,0,0,1.2,2.9,1.68,1.68,0,0,0,1.2-.49A8.17,8.17,0,0,0,35.3,9.74h0l-.1-.12h0a4.76,4.76,0,0,1,0-6.72A1.69,1.69,0,0,0,35.19.5Z"/><path d="M46.35.5A1.7,1.7,0,0,0,44,.5a8.15,8.15,0,0,0,0,11.5l0,0s0,0,0,0a4.77,4.77,0,0,1,0,6.73,1.68,1.68,0,0,0,0,2.4,1.65,1.65,0,0,0,1.2.5,1.7,1.7,0,0,0,1.2-.49,8.18,8.18,0,0,0,0-11.49h0l0-.06a4.76,4.76,0,0,1,0-6.72A1.7,1.7,0,0,0,46.35.5Z"/><path d="M.24,28.76A34.1,34.1,0,0,0,18.35,54.7v6.57H43.79a5.86,5.86,0,0,0,5.85-5.85V54.7A34.1,34.1,0,0,0,67.75,28.76L68,26.85H0Zm63.84,1.49A30.7,30.7,0,0,1,46.2,52.59H40.76V56h5.4a2.45,2.45,0,0,1-2.37,1.88h-22V56h6.38v-3.4H21.79A30.71,30.71,0,0,1,3.92,30.25Z"/><path d="M48.94,46.7a1.65,1.65,0,0,0,.8-.21,16.92,16.92,0,0,0,8.43-10.77,1.7,1.7,0,1,0-3.29-.83,13.58,13.58,0,0,1-6.74,8.61,1.7,1.7,0,0,0,.8,3.2Z"/><circle cx="44.82" cy="47.36" r="2.02"/></g></g></svg>